<?xml version="1.0" encoding="UTF-8" standalone="no"?>
<!DOCTYPE svg PUBLIC "-//W3C//DTD SVG 1.1//EN" "http://www.w3.org/Graphics/SVG/1.1/DTD/svg11.dtd">
<svg xmlns="http://www.w3.org/2000/svg" version="1.1" viewBox="0.00 0.00 48.00 48.00">
<g stroke-width="2.00" fill="none" stroke-linecap="butt">
<path stroke="#f19071" vector-effect="non-scaling-stroke" d="
  M 13.07 5.49
  Q 12.86 5.78 12.39 5.79
  Q 11.91 5.79 11.58 6.15
  L 4.39 14.10"
/>
<path stroke="#f19071" vector-effect="non-scaling-stroke" d="
  M 4.95 4.58
  L 1.93 7.56
  Q 1.39 8.10 2.15 8.22
  Q 2.77 8.31 3.12 7.76
  A 0.55 0.55 0.0 0 1 3.86 7.59
  L 6.47 9.14
  A 0.85 0.84 -53.7 0 0 7.54 8.97
  L 9.90 6.29
  A 0.61 0.61 0.0 0 0 9.97 5.58
  Q 9.68 5.06 9.16 4.88"
/>
<path stroke="#f6ab95" vector-effect="non-scaling-stroke" d="
  M 9.16 4.88
  Q 8.14 3.06 6.91 2.71
  A 0.80 0.79 -63.9 0 0 6.04 3.01
  L 4.95 4.58"
/>
<path stroke="#fac3b3" vector-effect="non-scaling-stroke" d="
  M 9.16 4.88
  Q 9.30 5.24 9.24 5.77
  Q 9.19 6.27 8.69 6.26
  Q 6.57 6.26 4.95 4.58"
/>
<path stroke="#e2bbad" vector-effect="non-scaling-stroke" d="
  M 13.37 5.66
  Q 13.07 6.30 13.37 6.20"
/>
<path stroke="#8d6b5d" vector-effect="non-scaling-stroke" d="
  M 13.37 6.20
  L 4.85 14.67"
/>
<path stroke="#dcc978" vector-effect="non-scaling-stroke" d="
  M 18.52 10.94
  Q 18.01 11.02 17.56 11.51"
/>
<path stroke="#939291" vector-effect="non-scaling-stroke" d="
  M 17.56 11.51
  Q 17.36 10.70 16.71 10.62
  Q 16.19 10.56 15.87 10.98
  Q 13.93 13.60 11.20 15.32
  A 0.49 0.49 0.0 0 1 10.58 14.57
  L 15.08 9.75
  Q 15.41 9.41 15.00 9.16
  L 14.47 8.84
  Q 14.06 8.59 13.79 8.99
  Q 11.97 11.83 8.97 13.38
  Q 8.58 13.58 8.33 13.22
  Q 8.21 13.03 8.28 12.77"
/>
<path stroke="#7b7f7c" vector-effect="non-scaling-stroke" d="
  M 8.28 12.77
  C 9.43 11.25 13.40 7.94 13.37 6.20"
/>
<path stroke="#3e4141" vector-effect="non-scaling-stroke" d="
  M 8.28 12.77
  L 5.49 15.28"
/>
<path stroke="#9e8b3d" vector-effect="non-scaling-stroke" d="
  M 17.56 11.51
  L 15.74 13.16"
/>
<path stroke="#a69a71" vector-effect="non-scaling-stroke" d="
  M 15.74 13.16
  L 14.69 14.19"
/>
<path stroke="#aa9c2c" vector-effect="non-scaling-stroke" d="
  M 14.69 14.19
  L 12.77 16.71"
/>
<path stroke="#a69a71" vector-effect="non-scaling-stroke" d="
  M 12.77 16.71
  Q 12.25 16.99 12.33 17.10"
/>
<path stroke="#8b7759" vector-effect="non-scaling-stroke" d="
  M 12.33 17.10
  Q 10.67 18.02 9.90 19.54"
/>
<path stroke="#9e8b3d" vector-effect="non-scaling-stroke" d="
  M 45.11 42.92
  L 44.01 42.98"
/>
<path stroke="#dcc978" vector-effect="non-scaling-stroke" d="
  M 44.01 42.98
  Q 44.16 42.39 43.25 42.49"
/>
<path stroke="#efd158" vector-effect="non-scaling-stroke" d="
  M 43.25 42.49
  L 43.83 41.90
  Q 44.26 41.47 43.85 41.04
  L 41.56 38.61
  Q 41.26 38.30 41.44 37.91
  Q 41.89 36.94 42.08 35.91
  A 0.31 0.31 0.0 0 0 41.51 35.71
  Q 40.47 37.67 39.02 36.24
  Q 27.38 24.77 15.74 13.16"
/>
<path stroke="#e4d8ac" vector-effect="non-scaling-stroke" d="
  M 43.25 42.49
  Q 43.44 42.65 42.70 42.84"
/>
<path stroke="#dcbd74" vector-effect="non-scaling-stroke" d="
  M 42.70 42.84
  L 39.52 40.16
  A 0.69 0.69 0.0 0 0 38.65 40.15
  C 38.09 40.61 35.67 43.17 35.17 42.98
  Q 34.66 42.80 34.95 42.34
  L 35.70 41.14
  Q 35.98 40.69 35.61 40.32
  L 12.33 17.10"
/>
<path stroke="#fbe247" vector-effect="non-scaling-stroke" d="
  M 12.77 16.71
  Q 13.04 17.00 13.33 16.99
  Q 13.63 16.99 13.84 17.21
  L 36.32 39.70
  A 0.84 0.83 -36.5 0 0 37.32 39.84
  Q 39.64 38.57 38.31 37.20
  C 35.31 34.12 17.10 14.37 14.69 14.19"
/>
<path stroke="#c8b594" vector-effect="non-scaling-stroke" d="
  M 42.70 42.84
  Q 42.70 42.92 42.70 43.00"
/>
<path stroke="#8b7759" vector-effect="non-scaling-stroke" d="
  M 42.70 43.00
  Q 41.38 43.88 40.88 45.69"
/>
<path stroke="#939291" vector-effect="non-scaling-stroke" d="
  M 44.01 42.98
  Q 44.10 43.58 43.91 43.92
  Q 43.65 44.38 43.21 44.10
  Q 42.71 43.77 42.70 43.00"
/>
</g>
<path fill="#ed7853" d="
  M 13.07 5.49
  Q 12.86 5.78 12.39 5.79
  Q 11.91 5.79 11.58 6.15
  L 4.39 14.10
  L 0.00 9.49
  L 0.00 7.69
  L 6.10 1.55
  A 2.14 2.14 0.0 0 1 9.13 1.54
  L 13.07 5.49
  Z
  M 4.95 4.58
  L 1.93 7.56
  Q 1.39 8.10 2.15 8.22
  Q 2.77 8.31 3.12 7.76
  A 0.55 0.55 0.0 0 1 3.86 7.59
  L 6.47 9.14
  A 0.85 0.84 -53.7 0 0 7.54 8.97
  L 9.90 6.29
  A 0.61 0.61 0.0 0 0 9.97 5.58
  Q 9.68 5.06 9.16 4.88
  Q 8.14 3.06 6.91 2.71
  A 0.80 0.79 -63.9 0 0 6.04 3.01
  L 4.95 4.58
  Z"
/>
<path fill="#ffded7" d="
  M 9.16 4.88
  Q 9.30 5.24 9.24 5.77
  Q 9.19 6.27 8.69 6.26
  Q 6.57 6.26 4.95 4.58
  L 6.04 3.01
  A 0.80 0.79 -63.9 0 1 6.91 2.71
  Q 8.14 3.06 9.16 4.88
  Z"
/>
<path fill="#f4a78e" d="
  M 4.95 4.58
  Q 6.57 6.26 8.69 6.26
  Q 9.19 6.27 9.24 5.77
  Q 9.30 5.24 9.16 4.88
  Q 9.68 5.06 9.97 5.58
  A 0.61 0.61 0.0 0 1 9.90 6.29
  L 7.54 8.97
  A 0.85 0.84 -53.7 0 1 6.47 9.14
  L 3.86 7.59
  A 0.55 0.55 0.0 0 0 3.12 7.76
  Q 2.77 8.31 2.15 8.22
  Q 1.39 8.10 1.93 7.56
  L 4.95 4.58
  Z"
/>
<path fill="#f4a78e" d="
  M 13.07 5.49
  Q 13.37 5.87 13.37 5.66
  Q 13.07 6.30 13.37 6.20
  L 4.85 14.67
  Q 4.52 14.44 4.39 14.10
  L 11.58 6.15
  Q 11.91 5.79 12.39 5.79
  Q 12.86 5.78 13.07 5.49
  Z"
/>
<path fill="#d0cfcc" d="
  M 13.37 5.66
  L 18.52 10.94
  Q 18.01 11.02 17.56 11.51
  Q 17.36 10.70 16.71 10.62
  Q 16.19 10.56 15.87 10.98
  Q 13.93 13.60 11.20 15.32
  A 0.49 0.49 0.0 0 1 10.58 14.57
  L 15.08 9.75
  Q 15.41 9.41 15.00 9.16
  L 14.47 8.84
  Q 14.06 8.59 13.79 8.99
  Q 11.97 11.83 8.97 13.38
  Q 8.58 13.58 8.33 13.22
  Q 8.21 13.03 8.28 12.77
  C 9.43 11.25 13.40 7.94 13.37 6.20
  Q 13.07 6.30 13.37 5.66
  Z"
/>
<path fill="#262e2b" d="
  M 13.37 6.20
  C 13.40 7.94 9.43 11.25 8.28 12.77
  L 5.49 15.28
  Q 4.91 14.89 4.85 14.67
  L 13.37 6.20
  Z"
/>
<path fill="#555456" d="
  M 17.56 11.51
  L 15.74 13.16
  L 14.69 14.19
  L 12.77 16.71
  Q 12.25 16.99 12.33 17.10
  Q 10.67 18.02 9.90 19.54
  L 5.49 15.28
  L 8.28 12.77
  Q 8.21 13.03 8.33 13.22
  Q 8.58 13.58 8.97 13.38
  Q 11.97 11.83 13.79 8.99
  Q 14.06 8.59 14.47 8.84
  L 15.00 9.16
  Q 15.41 9.41 15.08 9.75
  L 10.58 14.57
  A 0.49 0.49 0.0 0 0 11.20 15.32
  Q 13.93 13.60 15.87 10.98
  Q 16.19 10.56 16.71 10.62
  Q 17.36 10.70 17.56 11.51
  Z"
/>
<path fill="#e7c223" d="
  M 18.52 10.94
  Q 30.07 22.33 41.43 33.90
  C 43.97 36.48 44.26 39.60 45.11 42.92
  L 44.01 42.98
  Q 44.16 42.39 43.25 42.49
  L 43.83 41.90
  Q 44.26 41.47 43.85 41.04
  L 41.56 38.61
  Q 41.26 38.30 41.44 37.91
  Q 41.89 36.94 42.08 35.91
  A 0.31 0.31 0.0 0 0 41.51 35.71
  Q 40.47 37.67 39.02 36.24
  Q 27.38 24.77 15.74 13.16
  L 17.56 11.51
  Q 18.01 11.02 18.52 10.94
  Z"
/>
<path fill="#f7e08c" d="
  M 15.74 13.16
  Q 27.38 24.77 39.02 36.24
  Q 40.47 37.67 41.51 35.71
  A 0.31 0.31 0.0 0 1 42.08 35.91
  Q 41.89 36.94 41.44 37.91
  Q 41.26 38.30 41.56 38.61
  L 43.85 41.04
  Q 44.26 41.47 43.83 41.90
  L 43.25 42.49
  Q 43.44 42.65 42.70 42.84
  L 39.52 40.16
  A 0.69 0.69 0.0 0 0 38.65 40.15
  C 38.09 40.61 35.67 43.17 35.17 42.98
  Q 34.66 42.80 34.95 42.34
  L 35.70 41.14
  Q 35.98 40.69 35.61 40.32
  L 12.33 17.10
  Q 12.25 16.99 12.77 16.71
  Q 13.04 17.00 13.33 16.99
  Q 13.63 16.99 13.84 17.21
  L 36.32 39.70
  A 0.84 0.83 -36.5 0 0 37.32 39.84
  Q 39.64 38.57 38.31 37.20
  C 35.31 34.12 17.10 14.37 14.69 14.19
  L 15.74 13.16
  Z"
/>
<path fill="#ffe301" d="
  M 14.69 14.19
  C 17.10 14.37 35.31 34.12 38.31 37.20
  Q 39.64 38.57 37.32 39.84
  A 0.84 0.83 -36.5 0 1 36.32 39.70
  L 13.84 17.21
  Q 13.63 16.99 13.33 16.99
  Q 13.04 17.00 12.77 16.71
  L 14.69 14.19
  Z"
/>
<path fill="#c09a5b" d="
  M 12.33 17.10
  L 35.61 40.32
  Q 35.98 40.69 35.70 41.14
  L 34.95 42.34
  Q 34.66 42.80 35.17 42.98
  C 35.67 43.17 38.09 40.61 38.65 40.15
  A 0.69 0.69 0.0 0 1 39.52 40.16
  L 42.70 42.84
  Q 42.70 42.92 42.70 43.00
  Q 41.38 43.88 40.88 45.69
  C 37.40 45.16 35.01 44.64 32.39 42.01
  Q 21.16 30.78 9.90 19.54
  Q 10.67 18.02 12.33 17.10
  Z"
/>
<path fill="#d0cfcc" d="
  M 43.25 42.49
  Q 44.16 42.39 44.01 42.98
  Q 44.10 43.58 43.91 43.92
  Q 43.65 44.38 43.21 44.10
  Q 42.71 43.77 42.70 43.00
  Q 42.70 42.92 42.70 42.84
  Q 43.44 42.65 43.25 42.49
  Z"
/>
<path fill="#555456" d="
  M 42.70 43.00
  Q 42.71 43.77 43.21 44.10
  Q 43.65 44.38 43.91 43.92
  Q 44.10 43.58 44.01 42.98
  L 45.11 42.92
  Q 45.25 45.81 47.11 47.01
  A 0.14 0.14 0.0 0 1 47.04 47.26
  Q 43.71 47.42 40.88 45.69
  Q 41.38 43.88 42.70 43.00
  Z"
/>
</svg>
