<?xml version="1.0" ?><svg height="512" viewBox="0 0 512 512" width="512" xmlns="http://www.w3.org/2000/svg"><title/><rect height="80" rx="8" ry="8" width="80" x="336" y="336"/><rect height="64" rx="8" ry="8" width="64" x="272" y="272"/><rect height="64" rx="8" ry="8" width="64" x="416" y="416"/><rect height="48" rx="8" ry="8" width="48" x="432" y="272"/><rect height="48" rx="8" ry="8" width="48" x="272" y="432"/><rect height="80" rx="8" ry="8" width="80" x="336" y="96"/><rect height="176" rx="16" ry="16" style="fill:none;stroke:#000;stroke-linecap:round;stroke-linejoin:round;stroke-width:32px" width="176" x="288" y="48"/><rect height="80" rx="8" ry="8" width="80" x="96" y="96"/><rect height="176" rx="16" ry="16" style="fill:none;stroke:#000;stroke-linecap:round;stroke-linejoin:round;stroke-width:32px" width="176" x="48" y="48"/><rect height="80" rx="8" ry="8" width="80" x="96" y="336"/><rect height="176" rx="16" ry="16" style="fill:none;stroke:#000;stroke-linecap:round;stroke-linejoin:round;stroke-width:32px" width="176" x="48" y="288"/></svg>
